<?xml version="1.0" encoding="UTF-8"?>
<svg xmlns="http://www.w3.org/2000/svg" xmlns:xlink="http://www.w3.org/1999/xlink" viewBox="0 0 362.75 65.75">
  <defs>
    <style>
      .cls-1 {
        fill: url(#New_Gradient_Swatch_1-2);
      }

      .cls-2 {
        fill: url(#New_Gradient_Swatch_1-6);
      }

      .cls-3 {
        fill: url(#New_Gradient_Swatch_1-3);
      }

      .cls-4 {
        fill: url(#New_Gradient_Swatch_1-9);
      }

      .cls-5 {
        fill: url(#New_Gradient_Swatch_1-8);
      }

      .cls-6 {
        fill: url(#New_Gradient_Swatch_1-5);
      }

      .cls-7 {
        fill: url(#New_Gradient_Swatch_1-4);
      }

      .cls-8 {
        fill: url(#New_Gradient_Swatch_1-7);
      }

      .cls-9 {
        fill: #2f3a36;
        font-family: Cabin-Regular, Cabin;
        font-size: 22px;
      }

      .cls-10 {
        font-variation-settings: 'wght' 400, 'wdth' 100;
      }

      .cls-11 {
        fill: #fff;
      }

      .cls-12 {
        letter-spacing: 0em;
      }

      .cls-13 {
        fill: #5f8f7a;
        font-family: NotoSerifEthiopic-Regular, 'Noto Serif Ethiopic';
        font-size: 32px;
        letter-spacing: 0em;
      }

      .cls-14 {
        fill: url(#New_Gradient_Swatch_1);
      }

      .cls-15 {
        fill: url(#New_Gradient_Swatch_1-13);
      }

      .cls-16 {
        fill: url(#New_Gradient_Swatch_1-10);
      }

      .cls-17 {
        fill: url(#New_Gradient_Swatch_1-11);
      }

      .cls-18 {
        fill: url(#New_Gradient_Swatch_1-12);
      }

      .cls-19 {
        letter-spacing: -.01em;
      }

      .cls-20 {
        letter-spacing: 0em;
      }

      .cls-21 {
        letter-spacing: 0em;
      }

      .cls-22 {
        letter-spacing: 0em;
      }

      .cls-23 {
        letter-spacing: 0em;
      }

      .cls-24 {
        letter-spacing: .02em;
      }
    </style>
    <linearGradient id="New_Gradient_Swatch_1" data-name="New Gradient Swatch 1" x1="22.19" y1="48.72" x2="43.59" y2="48.72" gradientUnits="userSpaceOnUse">
      <stop offset="0" stop-color="#bbd7c5"></stop>
      <stop offset=".5" stop-color="#8cbf9e"></stop>
      <stop offset="1" stop-color="#82b898"></stop>
    </linearGradient>
    <linearGradient id="New_Gradient_Swatch_1-2" data-name="New Gradient Swatch 1" x1="19.29" y1="24.3" x2="31.86" y2="24.3" xlink:href="#New_Gradient_Swatch_1"></linearGradient>
    <linearGradient id="New_Gradient_Swatch_1-3" data-name="New Gradient Swatch 1" x1="33.82" y1="24.3" x2="46.42" y2="24.3" xlink:href="#New_Gradient_Swatch_1"></linearGradient>
    <linearGradient id="New_Gradient_Swatch_1-4" data-name="New Gradient Swatch 1" x1="37.51" y1="28.89" x2="57.74" y2="28.89" xlink:href="#New_Gradient_Swatch_1"></linearGradient>
    <linearGradient id="New_Gradient_Swatch_1-5" data-name="New Gradient Swatch 1" x1="7.99" y1="28.88" x2="28.12" y2="28.88" xlink:href="#New_Gradient_Swatch_1"></linearGradient>
    <linearGradient id="New_Gradient_Swatch_1-6" data-name="New Gradient Swatch 1" x1="0" y1="26.11" x2="11.68" y2="26.11" xlink:href="#New_Gradient_Swatch_1"></linearGradient>
    <linearGradient id="New_Gradient_Swatch_1-7" data-name="New Gradient Swatch 1" x1="54.1" y1="26.1" x2="65.75" y2="26.1" xlink:href="#New_Gradient_Swatch_1"></linearGradient>
    <linearGradient id="New_Gradient_Swatch_1-8" data-name="New Gradient Swatch 1" x1="40.53" y1="43.04" x2="65.3" y2="43.04" xlink:href="#New_Gradient_Swatch_1"></linearGradient>
    <linearGradient id="New_Gradient_Swatch_1-9" data-name="New Gradient Swatch 1" x1=".42" y1="43" x2="24.94" y2="43" xlink:href="#New_Gradient_Swatch_1"></linearGradient>
    <linearGradient id="New_Gradient_Swatch_1-10" data-name="New Gradient Swatch 1" x1="37.89" y1="52.36" x2="59.27" y2="52.36" xlink:href="#New_Gradient_Swatch_1"></linearGradient>
    <linearGradient id="New_Gradient_Swatch_1-11" data-name="New Gradient Swatch 1" x1="6.52" y1="52.34" x2="27.78" y2="52.34" xlink:href="#New_Gradient_Swatch_1"></linearGradient>
    <linearGradient id="New_Gradient_Swatch_1-12" data-name="New Gradient Swatch 1" x1="16.57" y1="59.11" x2="29.34" y2="59.11" xlink:href="#New_Gradient_Swatch_1"></linearGradient>
    <linearGradient id="New_Gradient_Swatch_1-13" data-name="New Gradient Swatch 1" x1="36.27" y1="59.11" x2="49.22" y2="59.11" xlink:href="#New_Gradient_Swatch_1"></linearGradient>
  </defs>
  <rect class="cls-11" width="362.75" height="65.75"></rect>
  <g id="Layer_1" data-name="Layer 1">
    <g>
      <g>
        <path class="cls-14" d="M32.87,57.49c-.34,1.52-.83,2.87-1.69,4.14-1.53,2.25-4.05,4.34-6.85,4.08-1.15-.11-2.27-.88-2.13-2.08.25-2.08,3.85-1.5,7.12-4.51,2.13-1.96,3.09-5.21,1.5-7.86-1.25-2.09-3.1-3.47-4.66-5.99-1.28-2.07-1.79-4.56-1.22-6.96.44-1.9,1.42-3.59,2.89-4.8,3.07-2.51,7.39-2.37,10.38.26,2.41,2.12,3.39,5.67,2.48,8.82-.42,1.44-1.05,2.71-1.98,3.83l-3.22,3.89c-2.46,2.96-1.6,6.97,1.34,9.27,2.38,1.86,4.12,1.86,6,2.95.74.43,1,1.3.54,2.07s-1.37,1.16-2.28,1.15c-2.92-.01-5.62-2.27-7.03-4.81-.62-1.05-.86-2.14-1.19-3.45Z"></path>
        <path class="cls-1" d="M22.81,46.18c-2.76-2.65-4.01-5.81-3.33-9.69.37-2.14,1.27-4.06,2.48-5.83,1.81-2.64,3.54-5.04,4.11-8.33.33-1.91.21-3.83-.43-5.64-1.44-4.11-4.41-6.13-5.01-9.81-.3-1.84.3-3.6,1.65-4.84C23.98.47,26.32-.29,28.6.12c.97.18,1.86.72,2.37,1.57.59.97.9,2.08.9,3.27l-.03,14.48c0,2.42-.68,4.73-1.86,6.77-2.39,4.13-5.76,5.58-7.17,10.39-1.31,4.48.32,8.87,3.6,12-1.41-.58-2.47-1.47-3.6-2.41Z"></path>
        <path class="cls-3" d="M46.18,40.66c-.75,3.5-3.84,6.4-6.94,7.94,1.33-1.37,2.44-2.74,3.19-4.47,1.33-3.04,1.31-6.49-.21-9.45-1.11-2.14-2.53-3.55-4.14-5.28-2.95-3.18-4.26-6.42-4.26-10.87V5.04c0-1,.18-1.92.57-2.81.52-1.2,1.62-2.01,2.92-2.17,2.11-.26,4.28.39,5.92,1.78,2.35,1.99,2.36,5.12.94,7.7-1.62,2.93-3.53,4.67-4.4,8.26-.71,2.93-.19,5.91,1.2,8.53.59,1.11,1.21,2.1,1.94,3.12.81,1.13,1.58,2.23,2.2,3.5,1.17,2.41,1.64,5.07,1.07,7.72Z"></path>
        <path class="cls-7" d="M48.28,46c-2.38,1.97-5.49,3.52-8.33,4.63-.82.32-1.54.71-2.43.92l5.67-3.69c1.34-.88,2.44-2.04,3.47-3.27,1.09-1.31,1.88-2.77,2.28-4.44.89-3.69-.14-7.11-1.74-10.41-1.51-3.11-2.63-5.58-3.04-9.1-.3-2.59.06-5.14.87-7.61.52-1.6,1.29-3.05,2.25-4.39,1.1-1.53,2.71-2.68,4.65-2.34,2.14.38,4.03,1.72,5.15,3.63.9,1.54.98,3.7-.4,4.99-.98.92-2.48,1.57-4.01,2.9-1.43,1.24-2.19,2.98-2.21,4.94-.01,1.53.36,2.99.8,4.44l.98,3.26c.65,2.17.91,4.38.77,6.65-.23,3.64-2.02,6.66-4.72,8.9Z"></path>
        <path class="cls-6" d="M22.09,48.97c-4.61-2.44-8.35-5.18-9.2-10.85-.46-3.05.08-6.15,1.02-9.07.84-2.61,1.93-5.65,1.07-8.32s-2.99-3.83-5.16-5.2c-1.02-.64-1.69-1.58-1.81-2.84-.12-1.17.28-2.29.98-3.26,1.13-1.57,2.74-2.69,4.6-3.1,1.42-.31,2.77.15,3.8,1.13.62.6,1.09,1.27,1.56,2,2.73,4.26,3.44,9.75,1.92,14.63-.99,3.18-2.02,4.72-3.14,7.57-1.61,4.1-1.81,8.5.8,12.22,1.37,1.95,3.12,3.52,5.11,4.78l4.51,2.86c-2.15-.7-4.04-1.65-6.04-2.55Z"></path>
        <path class="cls-2" d="M8.98,35.46c-.55-.38-.91-.91-1.27-1.47-.77-1.2-1.54-2.35-2.52-3.35-.78-.8-1.69-1.27-2.76-1.52-.95-.22-1.68-.85-1.98-1.82-.73-2.34-.54-4.87.41-7.12.38-.89.87-1.61,1.53-2.29,2.15-2.23,5.26-1.51,7.07.79s2.25,5.49,2.23,8.42c-.01,2.33-.23,4.58-.66,6.86-.09.48-.27.93-.54,1.28-.37.49-.99.58-1.51.22Z"></path>
        <path class="cls-8" d="M60.64,30.61c-1.74,1.7-2.39,3.49-3.52,4.64-.41.41-1.1.6-1.59.2-.38-.31-.6-.86-.71-1.37-.53-2.49-.75-5-.71-7.56.04-2.92.59-6.15,2.59-8.32,1.04-1.13,2.45-1.8,3.98-1.64,1.42.14,2.59.97,3.41,2.15,1.43,2.08,1.91,4.8,1.56,7.31-.12.84-.36,1.63-.89,2.29-.88,1.09-2.2.44-4.11,2.31Z"></path>
        <path class="cls-5" d="M46.37,50.86c-1.97.7-3.8,1.34-5.84,1.76l2.82-1.25,2.92-1.5c2.57-1.32,4.91-2.99,7.05-4.95,2-1.83,3.51-4.02,4.55-6.55.73-1.77,1.69-3.73,3.39-4.6,1.56-.79,3.24-.04,3.79,1.65.37,1.14.3,2.35-.07,3.53-.49,1.58-1.48,2.85-2.72,3.89-2.27,1.9-5.06,3.24-7.73,4.52s-5.32,2.48-8.17,3.49Z"></path>
        <path class="cls-4" d="M24.94,52.53c-1.34-.24-2.51-.67-3.79-1.09-3.81-1.23-7.42-2.84-11.04-4.59-2.1-1.01-4.09-2.08-5.98-3.46s-3.09-2.92-3.58-5.18c-.24-1.13-.16-2.28.34-3.31.63-1.29,2.09-1.76,3.39-1.21.79.34,1.47.94,1.99,1.68,1.74,2.45,1.72,4.22,3.73,6.89,2.98,3.94,7.64,6.83,11.99,8.89l2.93,1.37Z"></path>
        <path class="cls-16" d="M50.81,54.76c-3.2.82-9.35,2.09-12.32.57-.27-.14-.5-.36-.6-.64,3.46-.24,7.29-1.33,10.44-2.66l2.84-1.2c1.49-.63,6.96-3.27,7.95-1.6.47.79-.34,1.83-.96,2.38-1.86,1.65-4.98,2.53-7.36,3.14Z"></path>
        <path class="cls-17" d="M27.78,54.67c-.69,1.31-4.03,1.4-5.24,1.32-3.76-.26-7.41-1.03-10.98-2.24-1.26-.43-2.43-.98-3.5-1.75-.8-.58-1.89-1.71-1.43-2.73.35-.77,1.72-.64,2.41-.47,1.25.31,2.43.71,3.62,1.21l4.55,1.91c3.32,1.39,6.95,2.47,10.57,2.75Z"></path>
        <path class="cls-18" d="M16.89,60.39c-.37-.48-.45-1.13-.08-1.56.74-.85,2.56-.77,3.64-.7,1.67.11,3.3.13,4.95-.14.96-.15,1.89-.34,2.76-.75l1.18-.55c-1.39,2.51-4.79,3.23-7.28,4.15-.73.27-1.42.54-2.19.65-1.1.16-2.28-.18-2.99-1.1Z"></path>
        <path class="cls-15" d="M49.05,60.09c-.54.95-1.51,1.48-2.57,1.44-.68-.02-1.33-.19-1.97-.41l-3.73-1.25c-1.57-.52-3.68-1.53-4.51-3.18,2.57,1.41,5.3,1.68,8.19,1.52,1.29-.07,3.15-.25,4.22.35.55.31.7.96.37,1.53Z"></path>
      </g>
      <text class="cls-10" transform="translate(93.73 30.04)">
        <tspan class="cls-13">
          <tspan x="0" y="0">Dr. Sushree Patra</tspan>
        </tspan>
        <tspan class="cls-9">
          <tspan class="cls-20" x="0" y="26.4">O</tspan>
          <tspan x="16.81" y="26.4">bs</tspan>
          <tspan class="cls-22" x="38.13" y="26.4">t</tspan>
          <tspan x="45.45" y="26.4">etrician &amp; </tspan>
          <tspan class="cls-19" x="136.6" y="26.4">G</tspan>
          <tspan class="cls-12" x="151.07" y="26.4">ynae</tspan>
          <tspan class="cls-23" x="196.3" y="26.4">c</tspan>
          <tspan x="206.14" y="26.4">o</tspan>
          <tspan class="cls-21" x="218.24" y="26.4">l</tspan>
          <tspan x="223.32" y="26.4">o</tspan>
          <tspan class="cls-24" x="235.42" y="26.4">g</tspan>
          <tspan x="246.79" y="26.4">ist</tspan>
        </tspan>
      </text>
    </g>
  </g>
</svg>
