<svg width="362" height="66" viewBox="0 0 362 66" fill="none" xmlns="http://www.w3.org/2000/svg">
<g clip-path="url(#clip0_1119_673)">
<path d="M32.8601 57.49C32.5201 59.01 32.0301 60.36 31.1701 61.63C29.6401 63.88 27.1201 65.97 24.3201 65.71C23.1701 65.6 22.0501 64.83 22.1901 63.63C22.4401 61.55 26.0401 62.13 29.3101 59.12C31.4401 57.16 32.4001 53.91 30.8101 51.26C29.5601 49.17 27.7101 47.79 26.1501 45.27C24.8701 43.2 24.3601 40.71 24.9301 38.31C25.3701 36.41 26.3501 34.72 27.8201 33.51C30.8901 31 35.2101 31.14 38.2001 33.77C40.6101 35.89 41.5901 39.44 40.6801 42.59C40.2601 44.03 39.6301 45.3 38.7001 46.42L35.4801 50.31C33.0201 53.27 33.8801 57.28 36.8201 59.58C39.2001 61.44 40.9401 61.44 42.8201 62.53C43.5601 62.96 43.8201 63.83 43.3601 64.6C42.9001 65.37 41.9901 65.76 41.0801 65.75C38.1601 65.74 35.4601 63.48 34.0501 60.94C33.4301 59.89 33.1901 58.8 32.8601 57.49Z" fill="url(#paint0_linear_1119_673)"/>
<path d="M22.8001 46.18C20.0401 43.53 18.7901 40.37 19.4701 36.49C19.8401 34.35 20.7401 32.43 21.9501 30.66C23.7601 28.02 25.4901 25.62 26.0601 22.33C26.3901 20.42 26.2701 18.5 25.6301 16.69C24.1901 12.58 21.2201 10.56 20.6201 6.88C20.3201 5.04 20.9201 3.28 22.2701 2.04C23.9701 0.469999 26.3101 -0.290001 28.5901 0.119999C29.5601 0.299999 30.4501 0.839999 30.9601 1.69C31.5501 2.66 31.8601 3.77 31.8601 4.96L31.8301 19.44C31.8301 21.86 31.1501 24.17 29.9701 26.21C27.5801 30.34 24.2101 31.79 22.8001 36.6C21.4901 41.08 23.1201 45.47 26.4001 48.6C24.9901 48.02 23.9301 47.13 22.8001 46.19V46.18Z" fill="url(#paint1_linear_1119_673)"/>
<path d="M46.1701 40.66C45.4201 44.16 42.3301 47.06 39.2301 48.6C40.5601 47.23 41.6701 45.86 42.4201 44.13C43.7501 41.09 43.7301 37.64 42.2101 34.68C41.1001 32.54 39.6801 31.13 38.0701 29.4C35.1201 26.22 33.8101 22.98 33.8101 18.53V5.04C33.8101 4.04 33.9901 3.12 34.3801 2.23C34.9001 1.03 36.0001 0.220004 37.3001 0.0600043C39.4101 -0.199996 41.5801 0.450004 43.2201 1.84C45.5701 3.83 45.5801 6.96 44.1601 9.54C42.5401 12.47 40.6301 14.21 39.7601 17.8C39.0501 20.73 39.5701 23.71 40.9601 26.33C41.5501 27.44 42.1701 28.43 42.9001 29.45C43.7101 30.58 44.4801 31.68 45.1001 32.95C46.2701 35.36 46.7401 38.02 46.1701 40.67V40.66Z" fill="url(#paint2_linear_1119_673)"/>
<path d="M48.2703 46C45.8903 47.97 42.7803 49.52 39.9403 50.63C39.1203 50.95 38.4003 51.34 37.5103 51.55L43.1803 47.86C44.5203 46.98 45.6203 45.82 46.6503 44.59C47.7403 43.28 48.5303 41.82 48.9303 40.15C49.8203 36.46 48.7903 33.04 47.1903 29.74C45.6803 26.63 44.5603 24.16 44.1503 20.64C43.8503 18.05 44.2103 15.5 45.0203 13.03C45.5403 11.43 46.3103 9.98 47.2703 8.64C48.3703 7.11 49.9803 5.96 51.9203 6.3C54.0603 6.68 55.9503 8.02 57.0703 9.93C57.9703 11.47 58.0503 13.63 56.6703 14.92C55.6903 15.84 54.1903 16.49 52.6603 17.82C51.2303 19.06 50.4703 20.8 50.4503 22.76C50.4503 24.29 50.8103 25.75 51.2503 27.2L52.2303 30.46C52.8803 32.63 53.1403 34.84 53.0003 37.11C52.7703 40.75 50.9803 43.77 48.2803 46.01L48.2703 46Z" fill="url(#paint3_linear_1119_673)"/>
<path d="M22.0801 48.97C17.4701 46.53 13.7301 43.79 12.8801 38.12C12.4201 35.07 12.9601 31.97 13.9001 29.05C14.7401 26.44 15.8301 23.4 14.9701 20.73C14.1101 18.06 11.9801 16.9 9.81012 15.53C8.79012 14.89 8.12012 13.95 8.00012 12.69C7.88012 11.52 8.28012 10.4 8.98012 9.43C10.1101 7.86 11.7201 6.74 13.5801 6.33C15.0001 6.02 16.3501 6.48 17.3801 7.46C18.0001 8.06 18.4701 8.73 18.9401 9.46C21.6701 13.72 22.3801 19.21 20.8601 24.09C19.8701 27.27 18.8401 28.81 17.7201 31.66C16.1101 35.76 15.9101 40.16 18.5201 43.88C19.8901 45.83 21.6401 47.4 23.6301 48.66L28.1401 51.52C25.9901 50.82 24.1001 49.87 22.1001 48.97H22.0801Z" fill="url(#paint4_linear_1119_673)"/>
<path d="M8.97009 35.46C8.42009 35.08 8.06009 34.55 7.70009 33.99C6.93009 32.79 6.16009 31.64 5.18009 30.64C4.40009 29.84 3.49009 29.37 2.42009 29.12C1.47009 28.9 0.740094 28.27 0.440094 27.3C-0.289906 24.96 -0.099906 22.43 0.850094 20.18C1.23009 19.29 1.72009 18.57 2.38009 17.89C4.53009 15.66 7.64009 16.38 9.45009 18.68C11.2601 20.98 11.7001 24.17 11.6801 27.1C11.6701 29.43 11.4501 31.68 11.0201 33.96C10.9301 34.44 10.7501 34.89 10.4801 35.24C10.1101 35.73 9.4901 35.82 8.97009 35.46Z" fill="url(#paint5_linear_1119_673)"/>
<path d="M60.6303 30.61C58.8903 32.31 58.2403 34.1 57.1103 35.25C56.7003 35.66 56.0103 35.85 55.5203 35.45C55.1403 35.14 54.9203 34.59 54.8103 34.08C54.2803 31.59 54.0603 29.08 54.1003 26.52C54.1403 23.6 54.6903 20.37 56.6903 18.2C57.7303 17.07 59.1403 16.4 60.6703 16.56C62.0903 16.7 63.2603 17.53 64.0803 18.71C65.5103 20.79 65.9903 23.51 65.6403 26.02C65.5203 26.86 65.2803 27.65 64.7503 28.31C63.8703 29.4 62.5503 28.75 60.6403 30.62H60.6303V30.61Z" fill="url(#paint6_linear_1119_673)"/>
<path d="M46.36 50.86C44.39 51.56 42.56 52.2 40.52 52.62L43.34 51.37L46.26 49.87C48.83 48.55 51.17 46.88 53.31 44.92C55.31 43.09 56.82 40.9 57.86 38.37C58.59 36.6 59.55 34.64 61.25 33.77C62.81 32.98 64.49 33.73 65.04 35.42C65.41 36.56 65.34 37.77 64.97 38.95C64.48 40.53 63.49 41.8 62.25 42.84C59.98 44.74 57.19 46.08 54.52 47.36C51.85 48.64 49.2 49.84 46.35 50.85H46.36V50.86Z" fill="url(#paint7_linear_1119_673)"/>
<path d="M24.9303 52.53C23.5903 52.29 22.4203 51.86 21.1403 51.44C17.3303 50.21 13.7203 48.6 10.1003 46.85C8.0003 45.84 6.0103 44.77 4.1203 43.39C2.2303 42.01 1.0303 40.47 0.540298 38.21C0.300298 37.08 0.380298 35.93 0.880298 34.9C1.5103 33.61 2.9703 33.14 4.2703 33.69C5.0603 34.03 5.7403 34.63 6.2603 35.37C8.0003 37.82 7.9803 39.59 9.9903 42.26C12.9703 46.2 17.6303 49.09 21.9803 51.15L24.9103 52.52H24.9303V52.53Z" fill="url(#paint8_linear_1119_673)"/>
<path d="M50.7999 54.76C47.5999 55.58 41.4499 56.85 38.4799 55.33C38.2099 55.19 37.9799 54.97 37.8799 54.69C41.3399 54.45 45.1699 53.36 48.3199 52.03L51.1599 50.83C52.6499 50.2 58.1199 47.56 59.1099 49.23C59.5799 50.02 58.7699 51.06 58.1499 51.61C56.2899 53.26 53.1699 54.14 50.7899 54.75L50.7999 54.76Z" fill="url(#paint9_linear_1119_673)"/>
<path d="M27.7701 54.67C27.0801 55.98 23.7401 56.07 22.5301 55.99C18.7701 55.73 15.1201 54.96 11.5501 53.75C10.2901 53.32 9.12011 52.77 8.05011 52C7.25011 51.42 6.16011 50.29 6.62011 49.27C6.97011 48.5 8.34011 48.63 9.03011 48.8C10.2801 49.11 11.4601 49.51 12.6501 50.01L17.2001 51.92C20.5201 53.31 24.1501 54.39 27.7701 54.67Z" fill="url(#paint10_linear_1119_673)"/>
<path d="M16.8803 60.39C16.5103 59.91 16.4303 59.26 16.8003 58.83C17.5403 57.98 19.3603 58.06 20.4403 58.13C22.1103 58.24 23.7403 58.26 25.3903 57.99C26.3503 57.84 27.2803 57.65 28.1503 57.24L29.3303 56.69C27.9403 59.2 24.5403 59.92 22.0503 60.84C21.3203 61.11 20.6303 61.38 19.8603 61.49C18.7603 61.65 17.5803 61.31 16.8703 60.39H16.8803Z" fill="url(#paint11_linear_1119_673)"/>
<path d="M49.0403 60.09C48.5003 61.04 47.5303 61.57 46.4703 61.53C45.7903 61.51 45.1403 61.34 44.5003 61.12L40.7703 59.87C39.2003 59.35 37.0903 58.34 36.2603 56.69C38.8303 58.1 41.5603 58.37 44.4503 58.21C45.7403 58.14 47.6003 57.96 48.6703 58.56C49.2203 58.87 49.3703 59.52 49.0403 60.09Z" fill="url(#paint12_linear_1119_673)"/>
<path d="M94.9362 32.04V30.696H95.3522C95.8429 30.696 96.2802 30.6427 96.6642 30.536C97.0695 30.4293 97.3895 30.216 97.6242 29.896C97.8589 29.5547 97.9762 29.0533 97.9762 28.392V12.712C97.9762 12.072 97.8482 11.6027 97.5922 11.304C97.3575 10.984 97.0375 10.7813 96.6322 10.696C96.2482 10.5893 95.8215 10.536 95.3522 10.536H94.9362V9.19199H104.728C106.926 9.19199 108.803 9.63999 110.36 10.536C111.918 11.4107 113.102 12.7013 113.912 14.408C114.744 16.0933 115.16 18.152 115.16 20.584C115.16 22.9093 114.766 24.936 113.976 26.664C113.208 28.3707 112.056 29.6933 110.52 30.632C108.984 31.5707 107.054 32.04 104.728 32.04H94.9362ZM103.992 30.408C105.699 30.408 107.107 30.0347 108.216 29.288C109.347 28.52 110.19 27.4107 110.744 25.96C111.32 24.488 111.608 22.696 111.608 20.584C111.608 18.472 111.32 16.6907 110.744 15.24C110.19 13.7893 109.347 12.6907 108.216 11.944C107.107 11.176 105.71 10.792 104.024 10.792H101.208V30.408H103.992ZM118.026 32.04V30.696H118.122C118.613 30.696 119.05 30.6427 119.434 30.536C119.84 30.4293 120.16 30.216 120.394 29.896C120.629 29.5547 120.746 29.0533 120.746 28.392V18.408C120.746 17.768 120.618 17.2987 120.362 17C120.128 16.68 119.808 16.4773 119.402 16.392C119.018 16.2853 118.592 16.232 118.122 16.232H118.026V14.888H122.954L123.562 18.056H123.722C124 17.416 124.298 16.8293 124.618 16.296C124.938 15.7627 125.365 15.3467 125.898 15.048C126.432 14.728 127.168 14.568 128.106 14.568C129.28 14.568 130.144 14.7707 130.698 15.176C131.274 15.5813 131.562 16.1573 131.562 16.904C131.562 17.5653 131.328 18.1093 130.858 18.536C130.41 18.9627 129.653 19.176 128.586 19.176C128.586 18.5787 128.533 18.0987 128.426 17.736C128.32 17.3733 128.138 17.1067 127.882 16.936C127.648 16.7653 127.317 16.68 126.89 16.68C126.293 16.68 125.792 16.9147 125.386 17.384C124.981 17.8533 124.661 18.4507 124.426 19.176C124.192 19.9013 124.021 20.6587 123.914 21.448C123.808 22.216 123.754 22.9093 123.754 23.528V28.552C123.754 29.1707 123.872 29.64 124.106 29.96C124.362 30.2587 124.682 30.4613 125.066 30.568C125.472 30.6533 125.909 30.696 126.378 30.696H127.274V32.04H118.026ZM136.033 32.264C135.478 32.264 134.998 32.104 134.593 31.784C134.209 31.464 134.017 30.8987 134.017 30.088C134.017 29.256 134.209 28.6907 134.593 28.392C134.998 28.072 135.478 27.912 136.033 27.912C136.587 27.912 137.057 28.072 137.441 28.392C137.846 28.6907 138.049 29.256 138.049 30.088C138.049 30.8987 137.846 31.464 137.441 31.784C137.057 32.104 136.587 32.264 136.033 32.264ZM156.249 32.36C155.204 32.36 154.276 32.2533 153.465 32.04C152.676 31.8267 152.015 31.5173 151.481 31.112C150.948 30.7067 150.543 30.2267 150.265 29.672C150.009 29.1173 149.881 28.5093 149.881 27.848C149.881 27.4213 149.967 27.048 150.137 26.728C150.329 26.408 150.596 26.1627 150.937 25.992C151.279 25.8 151.695 25.704 152.185 25.704C152.228 26.5787 152.399 27.4107 152.697 28.2C152.996 28.968 153.455 29.5973 154.073 30.088C154.692 30.5573 155.503 30.792 156.505 30.792C157.935 30.792 159.055 30.4507 159.865 29.768C160.676 29.064 161.081 28.0613 161.081 26.76C161.081 25.9707 160.921 25.3093 160.601 24.776C160.303 24.2213 159.791 23.7093 159.065 23.24C158.361 22.7707 157.38 22.28 156.121 21.768C154.799 21.2133 153.7 20.616 152.825 19.976C151.951 19.336 151.3 18.5893 150.873 17.736C150.447 16.8613 150.233 15.8373 150.233 14.664C150.233 13.448 150.532 12.4133 151.129 11.56C151.748 10.6853 152.58 10.024 153.625 9.57599C154.692 9.10666 155.897 8.87199 157.241 8.87199C158.521 8.87199 159.599 9.04266 160.473 9.38399C161.369 9.72533 162.052 10.1733 162.521 10.728C162.991 11.2613 163.225 11.8373 163.225 12.456C163.225 13.1387 162.991 13.6613 162.521 14.024C162.073 14.3653 161.465 14.536 160.697 14.536C160.697 13.8747 160.58 13.2347 160.345 12.616C160.132 11.9973 159.759 11.4853 159.225 11.08C158.713 10.6747 158.009 10.472 157.113 10.472C155.876 10.472 154.916 10.8027 154.233 11.464C153.551 12.1253 153.209 13.0107 153.209 14.12C153.209 14.9733 153.359 15.6987 153.657 16.296C153.977 16.872 154.5 17.3947 155.225 17.864C155.951 18.312 156.932 18.792 158.169 19.304C159.428 19.816 160.495 20.3813 161.369 21C162.265 21.5973 162.948 22.2907 163.417 23.08C163.887 23.8693 164.121 24.8187 164.121 25.928C164.121 27.2933 163.801 28.456 163.161 29.416C162.521 30.3547 161.604 31.08 160.409 31.592C159.236 32.104 157.849 32.36 156.249 32.36ZM174.487 32.36C172.802 32.36 171.501 31.8693 170.583 30.888C169.666 29.8853 169.207 28.2853 169.207 26.088V18.408C169.207 17.768 169.079 17.2987 168.823 17C168.589 16.68 168.269 16.4773 167.863 16.392C167.479 16.2853 167.053 16.232 166.583 16.232H166.487V14.888H172.215V25.928C172.215 26.8453 172.311 27.6347 172.503 28.296C172.717 28.9573 173.069 29.4587 173.559 29.8C174.05 30.1413 174.722 30.312 175.575 30.312C176.514 30.312 177.282 30.0987 177.879 29.672C178.477 29.224 178.914 28.616 179.191 27.848C179.469 27.0587 179.607 26.152 179.607 25.128V18.536C179.607 17.8533 179.49 17.352 179.255 17.032C179.021 16.712 178.701 16.4987 178.295 16.392C177.911 16.2853 177.474 16.232 176.983 16.232H176.887V14.888H182.615V28.552C182.615 29.1707 182.733 29.64 182.967 29.96C183.223 30.2587 183.543 30.4613 183.927 30.568C184.333 30.6533 184.77 30.696 185.239 30.696H185.335V32.04H180.247L179.831 29.448H179.671C179.01 30.6427 178.242 31.432 177.367 31.816C176.493 32.1787 175.533 32.36 174.487 32.36ZM192.784 32.36C191.717 32.36 190.789 32.232 190 31.976C189.211 31.72 188.592 31.3467 188.144 30.856C187.717 30.344 187.504 29.7147 187.504 28.968C187.504 28.392 187.621 27.944 187.856 27.624C188.091 27.304 188.357 27.08 188.656 26.952C188.976 26.824 189.264 26.76 189.52 26.76C189.52 27.8693 189.765 28.8293 190.256 29.64C190.768 30.4293 191.675 30.824 192.976 30.824C194.107 30.824 194.971 30.5573 195.568 30.024C196.187 29.4693 196.496 28.7653 196.496 27.912C196.496 27.3787 196.379 26.9413 196.144 26.6C195.931 26.2587 195.536 25.928 194.96 25.608C194.405 25.2667 193.605 24.872 192.56 24.424C191.472 23.9333 190.565 23.464 189.84 23.016C189.136 22.5467 188.603 22.0133 188.24 21.416C187.899 20.7973 187.728 20.0293 187.728 19.112C187.728 17.6613 188.272 16.552 189.36 15.784C190.469 14.9947 191.931 14.6 193.744 14.6C194.768 14.6 195.621 14.7387 196.304 15.016C197.008 15.272 197.531 15.624 197.872 16.072C198.235 16.52 198.416 17.0107 198.416 17.544C198.416 18.12 198.213 18.5893 197.808 18.952C197.424 19.2933 196.859 19.464 196.112 19.464C196.112 18.3973 195.888 17.5653 195.44 16.968C194.992 16.3707 194.299 16.072 193.36 16.072C192.272 16.072 191.493 16.3173 191.024 16.808C190.555 17.2773 190.32 17.8853 190.32 18.632C190.32 19.4427 190.619 20.072 191.216 20.52C191.835 20.9467 192.859 21.448 194.288 22.024C195.419 22.4933 196.336 22.9627 197.04 23.432C197.744 23.9013 198.256 24.4453 198.576 25.064C198.917 25.6827 199.088 26.44 199.088 27.336C199.088 29 198.512 30.2587 197.36 31.112C196.208 31.944 194.683 32.36 192.784 32.36ZM201.077 32.04V30.696H201.333C201.824 30.696 202.261 30.6427 202.645 30.536C203.051 30.4293 203.371 30.216 203.605 29.896C203.84 29.5547 203.957 29.0533 203.957 28.392V11.24C203.957 10.6 203.829 10.1307 203.573 9.83199C203.339 9.51199 203.019 9.30932 202.613 9.22399C202.229 9.11732 201.803 9.06399 201.333 9.06399H201.077V7.71999H206.965V14.76C206.965 15.144 206.955 15.5493 206.933 15.976C206.912 16.3813 206.891 16.7333 206.869 17.032C206.848 17.3307 206.837 17.48 206.837 17.48H206.997C207.317 16.84 207.701 16.3067 208.149 15.88C208.619 15.432 209.141 15.1013 209.717 14.888C210.315 14.6747 210.976 14.568 211.701 14.568C213.536 14.568 214.933 15.0693 215.893 16.072C216.875 17.0533 217.365 18.6427 217.365 20.84V28.392C217.365 29.0533 217.472 29.5547 217.685 29.896C217.899 30.216 218.187 30.4293 218.549 30.536C218.933 30.6427 219.36 30.696 219.829 30.696H219.925V32.04H214.357V21C214.357 19.6133 214.091 18.536 213.557 17.768C213.045 17 212.139 16.616 210.837 16.616C209.963 16.616 209.237 16.8293 208.661 17.256C208.085 17.6827 207.659 18.2907 207.381 19.08C207.104 19.848 206.965 20.7547 206.965 21.8V28.552C206.965 29.1707 207.083 29.64 207.317 29.96C207.573 30.2587 207.893 30.4613 208.277 30.568C208.683 30.6533 209.12 30.696 209.589 30.696H209.685V32.04H201.077ZM221.87 32.04V30.696H221.966C222.457 30.696 222.894 30.6427 223.278 30.536C223.683 30.4293 224.003 30.216 224.238 29.896C224.473 29.5547 224.59 29.0533 224.59 28.392V18.408C224.59 17.768 224.462 17.2987 224.206 17C223.971 16.68 223.651 16.4773 223.246 16.392C222.862 16.2853 222.435 16.232 221.966 16.232H221.87V14.888H226.798L227.406 18.056H227.566C227.843 17.416 228.142 16.8293 228.462 16.296C228.782 15.7627 229.209 15.3467 229.742 15.048C230.275 14.728 231.011 14.568 231.95 14.568C233.123 14.568 233.987 14.7707 234.542 15.176C235.118 15.5813 235.406 16.1573 235.406 16.904C235.406 17.5653 235.171 18.1093 234.702 18.536C234.254 18.9627 233.497 19.176 232.43 19.176C232.43 18.5787 232.377 18.0987 232.27 17.736C232.163 17.3733 231.982 17.1067 231.726 16.936C231.491 16.7653 231.161 16.68 230.734 16.68C230.137 16.68 229.635 16.9147 229.23 17.384C228.825 17.8533 228.505 18.4507 228.27 19.176C228.035 19.9013 227.865 20.6587 227.758 21.448C227.651 22.216 227.598 22.9093 227.598 23.528V28.552C227.598 29.1707 227.715 29.64 227.95 29.96C228.206 30.2587 228.526 30.4613 228.91 30.568C229.315 30.6533 229.753 30.696 230.222 30.696H231.118V32.04H221.87ZM245.06 32.36C242.735 32.36 240.911 31.592 239.588 30.056C238.287 28.52 237.636 26.3653 237.636 23.592C237.636 20.6053 238.255 18.3547 239.492 16.84C240.73 15.3253 242.479 14.568 244.74 14.568C246.81 14.568 248.431 15.208 249.604 16.488C250.799 17.768 251.396 19.6773 251.396 22.216V23.688H240.74C240.783 26.0133 241.199 27.7093 241.988 28.776C242.799 29.8213 243.972 30.344 245.508 30.344C246.618 30.344 247.556 30.12 248.324 29.672C249.114 29.2027 249.7 28.68 250.084 28.104C250.234 28.168 250.372 28.296 250.5 28.488C250.628 28.68 250.692 28.9147 250.692 29.192C250.692 29.6187 250.49 30.0773 250.084 30.568C249.679 31.0587 249.06 31.4853 248.228 31.848C247.396 32.1893 246.34 32.36 245.06 32.36ZM248.164 21.96C248.164 20.2533 247.898 18.888 247.364 17.864C246.852 16.8187 245.956 16.296 244.676 16.296C243.503 16.296 242.586 16.7867 241.924 17.768C241.284 18.728 240.911 20.1253 240.804 21.96H248.164ZM262.185 32.36C259.86 32.36 258.036 31.592 256.713 30.056C255.412 28.52 254.761 26.3653 254.761 23.592C254.761 20.6053 255.38 18.3547 256.617 16.84C257.855 15.3253 259.604 14.568 261.865 14.568C263.935 14.568 265.556 15.208 266.729 16.488C267.924 17.768 268.521 19.6773 268.521 22.216V23.688H257.865C257.908 26.0133 258.324 27.7093 259.113 28.776C259.924 29.8213 261.097 30.344 262.633 30.344C263.743 30.344 264.681 30.12 265.449 29.672C266.239 29.2027 266.825 28.68 267.209 28.104C267.359 28.168 267.497 28.296 267.625 28.488C267.753 28.68 267.817 28.9147 267.817 29.192C267.817 29.6187 267.615 30.0773 267.209 30.568C266.804 31.0587 266.185 31.4853 265.353 31.848C264.521 32.1893 263.465 32.36 262.185 32.36ZM265.289 21.96C265.289 20.2533 265.023 18.888 264.489 17.864C263.977 16.8187 263.081 16.296 261.801 16.296C260.628 16.296 259.711 16.7867 259.049 17.768C258.409 18.728 258.036 20.1253 257.929 21.96H265.289ZM279.655 32.04V30.696H280.071C280.562 30.696 280.999 30.6427 281.383 30.536C281.788 30.4293 282.108 30.216 282.343 29.896C282.578 29.5547 282.695 29.0533 282.695 28.392V12.712C282.695 12.072 282.567 11.6027 282.311 11.304C282.076 10.984 281.756 10.7813 281.351 10.696C280.967 10.5893 280.54 10.536 280.071 10.536H279.655V9.19199H288.647C291.335 9.19199 293.319 9.78933 294.599 10.984C295.879 12.1573 296.519 13.7893 296.519 15.88C296.519 16.84 296.37 17.7573 296.071 18.632C295.772 19.4853 295.282 20.2533 294.599 20.936C293.938 21.6187 293.052 22.1627 291.943 22.568C290.855 22.952 289.522 23.144 287.943 23.144H285.927V28.552C285.927 29.1707 286.044 29.64 286.279 29.96C286.535 30.2587 286.855 30.4613 287.239 30.568C287.644 30.6533 288.082 30.696 288.551 30.696H289.607V32.04H279.655ZM287.623 21.64C288.583 21.64 289.404 21.544 290.087 21.352C290.791 21.1387 291.356 20.808 291.783 20.36C292.231 19.912 292.551 19.336 292.743 18.632C292.956 17.9067 293.063 17.032 293.063 16.008C293.063 14.216 292.69 12.8933 291.943 12.04C291.196 11.1653 289.916 10.728 288.103 10.728H285.927V21.64H287.623ZM304.311 32.36C303.373 32.36 302.519 32.1787 301.751 31.816C301.005 31.432 300.418 30.8667 299.991 30.12C299.565 29.352 299.351 28.392 299.351 27.24C299.351 25.5333 299.949 24.2747 301.143 23.464C302.359 22.6533 304.194 22.2053 306.647 22.12L309.303 22.024V20.104C309.303 19.336 309.239 18.664 309.111 18.088C308.983 17.4907 308.706 17.0213 308.279 16.68C307.853 16.3387 307.202 16.168 306.327 16.168C305.517 16.168 304.898 16.3173 304.471 16.616C304.045 16.9147 303.757 17.3307 303.607 17.864C303.479 18.376 303.415 18.9733 303.415 19.656C302.519 19.656 301.837 19.5067 301.367 19.208C300.919 18.888 300.695 18.3653 300.695 17.64C300.695 16.8933 300.951 16.296 301.463 15.848C301.997 15.4 302.701 15.08 303.575 14.888C304.45 14.6747 305.41 14.568 306.455 14.568C308.418 14.568 309.879 14.984 310.839 15.816C311.821 16.648 312.311 18.0773 312.311 20.104V28.392C312.311 28.9893 312.375 29.4587 312.503 29.8C312.631 30.12 312.845 30.3547 313.143 30.504C313.442 30.632 313.826 30.696 314.295 30.696H314.391V32.04H310.071L309.559 29.288H309.303C308.855 29.8853 308.418 30.4187 307.991 30.888C307.565 31.336 307.063 31.6987 306.487 31.976C305.933 32.232 305.207 32.36 304.311 32.36ZM305.047 30.376C305.922 30.376 306.669 30.1947 307.287 29.832C307.927 29.4693 308.418 28.9573 308.759 28.296C309.122 27.6133 309.303 26.824 309.303 25.928V23.336L307.255 23.432C306.039 23.4747 305.079 23.656 304.375 23.976C303.693 24.296 303.202 24.744 302.903 25.32C302.605 25.8747 302.455 26.568 302.455 27.4C302.455 28.0613 302.551 28.616 302.743 29.064C302.935 29.4907 303.223 29.8213 303.607 30.056C303.991 30.2693 304.471 30.376 305.047 30.376ZM323.463 32.36C321.841 32.36 320.657 31.9973 319.911 31.272C319.185 30.5253 318.823 29.2347 318.823 27.4V16.712H316.391V15.432C316.775 15.432 317.201 15.3573 317.671 15.208C318.14 15.0373 318.545 14.7707 318.887 14.408C319.249 14.024 319.548 13.5547 319.783 13C320.017 12.4453 320.209 11.7627 320.359 10.952H321.831V14.888H326.023V16.712H321.831V27.496C321.831 28.584 322.055 29.384 322.503 29.896C322.951 30.408 323.537 30.664 324.263 30.664C324.647 30.664 324.999 30.6427 325.319 30.6C325.639 30.5573 325.969 30.504 326.311 30.44V31.848C326.033 31.976 325.617 32.0933 325.063 32.2C324.508 32.3067 323.975 32.36 323.463 32.36ZM328.089 32.04V30.696H328.185C328.675 30.696 329.113 30.6427 329.497 30.536C329.902 30.4293 330.222 30.216 330.457 29.896C330.691 29.5547 330.809 29.0533 330.809 28.392V18.408C330.809 17.768 330.681 17.2987 330.425 17C330.19 16.68 329.87 16.4773 329.465 16.392C329.081 16.2853 328.654 16.232 328.185 16.232H328.089V14.888H333.017L333.625 18.056H333.785C334.062 17.416 334.361 16.8293 334.681 16.296C335.001 15.7627 335.427 15.3467 335.961 15.048C336.494 14.728 337.23 14.568 338.169 14.568C339.342 14.568 340.206 14.7707 340.761 15.176C341.337 15.5813 341.625 16.1573 341.625 16.904C341.625 17.5653 341.39 18.1093 340.921 18.536C340.473 18.9627 339.715 19.176 338.649 19.176C338.649 18.5787 338.595 18.0987 338.489 17.736C338.382 17.3733 338.201 17.1067 337.945 16.936C337.71 16.7653 337.379 16.68 336.953 16.68C336.355 16.68 335.854 16.9147 335.449 17.384C335.043 17.8533 334.723 18.4507 334.489 19.176C334.254 19.9013 334.083 20.6587 333.977 21.448C333.87 22.216 333.817 22.9093 333.817 23.528V28.552C333.817 29.1707 333.934 29.64 334.169 29.96C334.425 30.2587 334.745 30.4613 335.129 30.568C335.534 30.6533 335.971 30.696 336.441 30.696H337.337V32.04H328.089ZM348.655 32.36C347.717 32.36 346.863 32.1787 346.095 31.816C345.349 31.432 344.762 30.8667 344.335 30.12C343.909 29.352 343.695 28.392 343.695 27.24C343.695 25.5333 344.293 24.2747 345.487 23.464C346.703 22.6533 348.538 22.2053 350.991 22.12L353.647 22.024V20.104C353.647 19.336 353.583 18.664 353.455 18.088C353.327 17.4907 353.05 17.0213 352.623 16.68C352.197 16.3387 351.546 16.168 350.671 16.168C349.861 16.168 349.242 16.3173 348.815 16.616C348.389 16.9147 348.101 17.3307 347.951 17.864C347.823 18.376 347.759 18.9733 347.759 19.656C346.863 19.656 346.181 19.5067 345.711 19.208C345.263 18.888 345.039 18.3653 345.039 17.64C345.039 16.8933 345.295 16.296 345.807 15.848C346.341 15.4 347.045 15.08 347.919 14.888C348.794 14.6747 349.754 14.568 350.799 14.568C352.762 14.568 354.223 14.984 355.183 15.816C356.165 16.648 356.655 18.0773 356.655 20.104V28.392C356.655 28.9893 356.719 29.4587 356.847 29.8C356.975 30.12 357.189 30.3547 357.487 30.504C357.786 30.632 358.17 30.696 358.639 30.696H358.735V32.04H354.415L353.903 29.288H353.647C353.199 29.8853 352.762 30.4187 352.335 30.888C351.909 31.336 351.407 31.6987 350.831 31.976C350.277 32.232 349.551 32.36 348.655 32.36ZM349.391 30.376C350.266 30.376 351.013 30.1947 351.631 29.832C352.271 29.4693 352.762 28.9573 353.103 28.296C353.466 27.6133 353.647 26.824 353.647 25.928V23.336L351.599 23.432C350.383 23.4747 349.423 23.656 348.719 23.976C348.037 24.296 347.546 24.744 347.247 25.32C346.949 25.8747 346.799 26.568 346.799 27.4C346.799 28.0613 346.895 28.616 347.087 29.064C347.279 29.4907 347.567 29.8213 347.951 30.056C348.335 30.2693 348.815 30.376 349.391 30.376Z" fill="#5F8F7A"/>
<path d="M102.19 55.748C100.724 55.748 99.4182 55.4217 98.2742 54.769C97.1302 54.109 96.2319 53.1813 95.5792 51.986C94.9265 50.7833 94.6002 49.368 94.6002 47.74C94.6002 46.112 94.9265 44.7003 95.5792 43.505C96.2319 42.3023 97.1302 41.3747 98.2742 40.722C99.4182 40.062 100.724 39.732 102.19 39.732C103.657 39.732 104.962 40.062 106.106 40.722C107.25 41.3747 108.149 42.3023 108.801 43.505C109.454 44.7003 109.78 46.112 109.78 47.74C109.78 49.368 109.454 50.7833 108.801 51.986C108.149 53.1813 107.25 54.109 106.106 54.769C104.962 55.4217 103.657 55.748 102.19 55.748ZM102.19 53.724C103.371 53.724 104.357 53.46 105.149 52.932C105.941 52.3967 106.535 51.678 106.931 50.776C107.335 49.8667 107.536 48.8547 107.536 47.74C107.536 46.6253 107.335 45.617 106.931 44.715C106.535 43.8057 105.941 43.087 105.149 42.559C104.357 42.0237 103.371 41.756 102.19 41.756C101.01 41.756 100.023 42.0237 99.2312 42.559C98.4392 43.087 97.8415 43.8057 97.4382 44.715C97.0422 45.617 96.8442 46.6253 96.8442 47.74C96.8442 48.8547 97.0422 49.8667 97.4382 50.776C97.8415 51.678 98.4392 52.3967 99.2312 52.932C100.023 53.46 101.01 53.724 102.19 53.724Z" fill="#2F3A36"/>
<path d="M117.174 55.66C116.419 55.66 115.686 55.4803 114.974 55.121C114.27 54.7543 113.779 54.2153 113.5 53.504L113.984 53.152L113.61 55.44H111.85V38.94H113.83V46.772L113.412 46.464C113.779 45.87 114.303 45.386 114.985 45.012C115.667 44.6307 116.397 44.44 117.174 44.44C118.179 44.44 119.044 44.704 119.77 45.232C120.496 45.7527 121.054 46.442 121.442 47.3C121.838 48.1507 122.036 49.0673 122.036 50.05C122.036 51.0987 121.82 52.0483 121.387 52.899C120.955 53.7423 120.372 54.4133 119.638 54.912C118.905 55.4107 118.084 55.66 117.174 55.66ZM116.932 53.9C117.563 53.9 118.109 53.7277 118.571 53.383C119.033 53.031 119.389 52.5653 119.638 51.986C119.888 51.3993 120.012 50.754 120.012 50.05C120.012 49.3167 119.888 48.6603 119.638 48.081C119.389 47.5017 119.033 47.0433 118.571 46.706C118.109 46.3687 117.563 46.2 116.932 46.2C116.368 46.2 115.84 46.343 115.348 46.629C114.864 46.9077 114.472 47.333 114.171 47.905C113.871 48.4697 113.72 49.1847 113.72 50.05C113.72 50.952 113.871 51.6853 114.171 52.25C114.472 52.8147 114.864 53.2327 115.348 53.504C115.84 53.768 116.368 53.9 116.932 53.9ZM127.133 55.66C126.18 55.66 125.388 55.5463 124.757 55.319C124.134 55.0917 123.694 54.89 123.437 54.714L123.679 52.8C123.914 53.0053 124.328 53.24 124.922 53.504C125.516 53.768 126.224 53.9 127.045 53.9C127.742 53.9 128.274 53.7827 128.64 53.548C129.014 53.3133 129.201 52.9833 129.201 52.558C129.201 52.184 129.08 51.8833 128.838 51.656C128.604 51.4213 128.318 51.238 127.98 51.106C127.65 50.9667 127.339 50.8567 127.045 50.776C126.554 50.644 126.044 50.479 125.516 50.281C124.996 50.0757 124.556 49.7713 124.196 49.368C123.837 48.9647 123.657 48.4 123.657 47.674C123.657 47.124 123.789 46.6033 124.053 46.112C124.317 45.6133 124.746 45.21 125.34 44.902C125.934 44.594 126.723 44.44 127.705 44.44C128.424 44.44 129.007 44.517 129.454 44.671C129.909 44.8177 130.301 44.9753 130.631 45.144L130.389 46.948C130.074 46.684 129.707 46.4603 129.289 46.277C128.871 46.0937 128.358 46.002 127.749 46.002C127.133 46.002 126.631 46.1193 126.242 46.354C125.854 46.5813 125.659 46.948 125.659 47.454C125.659 47.96 125.865 48.3193 126.275 48.532C126.693 48.7447 127.324 48.9793 128.167 49.236C128.431 49.3093 128.736 49.4157 129.08 49.555C129.432 49.6943 129.773 49.8813 130.103 50.116C130.433 50.3507 130.705 50.6587 130.917 51.04C131.137 51.414 131.247 51.8833 131.247 52.448C131.247 52.9247 131.134 53.4123 130.906 53.911C130.679 54.4023 130.268 54.8167 129.674 55.154C129.08 55.4913 128.233 55.66 127.133 55.66Z" fill="#2F3A36"/>
<path d="M136.91 55.66C136.228 55.66 135.682 55.5353 135.271 55.286C134.86 55.0367 134.56 54.7177 134.369 54.329C134.186 53.933 134.094 53.5187 134.094 53.086V46.2H132.246L132.422 44.66H134.094V41.998L136.074 41.8V44.66H138.912V46.2H136.074V51.876C136.074 52.5653 136.114 53.064 136.195 53.372C136.276 53.68 136.474 53.8743 136.789 53.955C137.112 54.0357 137.629 54.076 138.34 54.076H138.846L138.692 55.66H136.91Z" fill="#2F3A36"/>
<path d="M145.682 55.66C144.414 55.66 143.347 55.3997 142.481 54.879C141.616 54.3583 140.96 53.669 140.512 52.811C140.072 51.9457 139.852 50.996 139.852 49.962C139.852 48.9573 140.058 48.037 140.468 47.201C140.886 46.365 141.488 45.6977 142.272 45.199C143.064 44.693 144.018 44.44 145.132 44.44C146.027 44.44 146.823 44.6197 147.519 44.979C148.223 45.331 148.773 45.848 149.169 46.53C149.573 47.2047 149.774 48.026 149.774 48.994C149.774 49.148 149.767 49.3167 149.752 49.5C149.745 49.676 149.723 49.8593 149.686 50.05H141.876C141.972 51.0473 142.21 51.8247 142.591 52.382C142.973 52.9393 143.453 53.3317 144.032 53.559C144.612 53.7863 145.242 53.9 145.924 53.9C146.423 53.9 146.944 53.8487 147.486 53.746C148.029 53.6433 148.542 53.482 149.026 53.262L149.29 54.824C148.872 55.0073 148.363 55.1943 147.761 55.385C147.16 55.5683 146.467 55.66 145.682 55.66ZM142.052 48.686H147.728C147.728 48.18 147.633 47.74 147.442 47.366C147.252 46.992 146.962 46.706 146.573 46.508C146.185 46.3027 145.69 46.2 145.088 46.2C144.208 46.2 143.53 46.42 143.053 46.86C142.584 47.2927 142.25 47.9013 142.052 48.686ZM155.488 55.66C154.806 55.66 154.26 55.5353 153.849 55.286C153.439 55.0367 153.138 54.7177 152.947 54.329C152.764 53.933 152.672 53.5187 152.672 53.086V46.2H150.824L151 44.66H152.672V41.998L154.652 41.8V44.66H157.49V46.2H154.652V51.876C154.652 52.5653 154.693 53.064 154.773 53.372C154.854 53.68 155.052 53.8743 155.367 53.955C155.69 54.0357 156.207 54.076 156.918 54.076H157.424L157.27 55.66H155.488ZM159.182 55.44V44.66H160.81L161.052 46.442C161.602 45.76 162.127 45.2577 162.625 44.935C163.131 44.605 163.67 44.44 164.242 44.44C164.426 44.44 164.594 44.462 164.748 44.506L164.55 46.684C164.455 46.662 164.352 46.6473 164.242 46.64C164.14 46.6253 164.022 46.618 163.89 46.618C163.318 46.618 162.79 46.7463 162.306 47.003C161.83 47.2523 161.492 47.5273 161.294 47.828V55.44H159.182ZM166.143 55.44V44.66H168.123V55.44H166.143ZM166.143 42.24V40.04H168.123V42.24H166.143ZM175.755 55.66C174.538 55.66 173.515 55.4143 172.686 54.923C171.865 54.4243 171.242 53.757 170.816 52.921C170.398 52.0777 170.189 51.1427 170.189 50.116C170.189 49.0453 170.391 48.081 170.794 47.223C171.205 46.365 171.832 45.6867 172.675 45.188C173.519 44.6893 174.597 44.44 175.909 44.44C176.474 44.44 177.006 44.4987 177.504 44.616C178.01 44.726 178.461 44.88 178.857 45.078L178.549 46.816C178.146 46.6253 177.717 46.475 177.262 46.365C176.815 46.255 176.349 46.2 175.865 46.2C174.677 46.2 173.772 46.5373 173.148 47.212C172.525 47.8867 172.213 48.8253 172.213 50.028C172.213 51.2013 172.51 52.1437 173.104 52.855C173.698 53.5663 174.604 53.922 175.821 53.922C176.32 53.922 176.797 53.8633 177.251 53.746C177.713 53.6287 178.153 53.4673 178.571 53.262L178.835 54.846C178.542 55.0513 178.113 55.2383 177.548 55.407C176.984 55.5757 176.386 55.66 175.755 55.66ZM180.796 55.44V44.66H182.776V55.44H180.796ZM180.796 42.24V40.04H182.776V42.24H180.796ZM187.966 55.66C187.298 55.66 186.715 55.5243 186.217 55.253C185.718 54.9817 185.329 54.6113 185.051 54.142C184.779 53.6727 184.644 53.1373 184.644 52.536C184.644 51.9273 184.776 51.4067 185.04 50.974C185.311 50.534 185.67 50.171 186.118 49.885C186.572 49.5917 187.078 49.3607 187.636 49.192C188.193 49.016 188.769 48.8913 189.363 48.818C189.964 48.7373 190.54 48.6933 191.09 48.686C191.09 47.6593 190.888 46.9883 190.485 46.673C190.081 46.3577 189.498 46.2 188.736 46.2C188.332 46.2 187.9 46.2623 187.438 46.387C186.983 46.5117 186.47 46.772 185.898 47.168L185.612 45.562C186.044 45.232 186.583 44.9643 187.229 44.759C187.874 44.5463 188.552 44.44 189.264 44.44C190.173 44.44 190.906 44.6013 191.464 44.924C192.021 45.2393 192.428 45.7747 192.685 46.53C192.941 47.2853 193.07 48.312 193.07 49.61V51.81C193.07 52.3233 193.092 52.7487 193.136 53.086C193.187 53.416 193.297 53.6653 193.466 53.834C193.642 53.9953 193.92 54.076 194.302 54.076H194.5L194.192 55.66H194.038C193.4 55.66 192.905 55.5977 192.553 55.473C192.208 55.3483 191.944 55.1687 191.761 54.934C191.577 54.6993 191.412 54.4133 191.266 54.076C190.862 54.5453 190.386 54.9267 189.836 55.22C189.286 55.5133 188.662 55.66 187.966 55.66ZM188.34 54.076C188.868 54.076 189.377 53.944 189.869 53.68C190.367 53.416 190.774 53.064 191.09 52.624V50.05C190.041 50.0867 189.19 50.1893 188.538 50.358C187.892 50.5267 187.419 50.7797 187.119 51.117C186.818 51.4543 186.668 51.8907 186.668 52.426C186.668 53.0053 186.822 53.427 187.13 53.691C187.445 53.9477 187.848 54.076 188.34 54.076ZM196.028 55.44V44.66H197.568L197.964 46.728L197.194 46.398C197.92 45.5913 198.628 45.0633 199.317 44.814C200.014 44.5647 200.692 44.44 201.352 44.44C202.929 44.44 204.054 44.8947 204.729 45.804C205.411 46.7133 205.752 47.9453 205.752 49.5V55.44H203.772V49.5C203.772 48.356 203.559 47.52 203.134 46.992C202.709 46.464 201.983 46.2 200.956 46.2C200.23 46.2 199.563 46.3613 198.954 46.684C198.353 46.9993 197.957 47.5053 197.766 48.202L198.008 46.992V55.44H196.028ZM217.615 55.946C216.581 55.946 215.697 55.7627 214.964 55.396C214.238 55.0293 213.68 54.538 213.292 53.922C212.903 53.306 212.709 52.624 212.709 51.876C212.709 51.3113 212.804 50.776 212.995 50.27C213.185 49.7567 213.482 49.2653 213.886 48.796C214.296 48.3193 214.828 47.85 215.481 47.388C214.843 46.6033 214.406 45.9103 214.172 45.309C213.944 44.7077 213.831 44.154 213.831 43.648C213.831 42.878 214.007 42.218 214.359 41.668C214.718 41.118 215.195 40.7 215.789 40.414C216.383 40.1207 217.035 39.974 217.747 39.974C219.001 39.974 219.917 40.2673 220.497 40.854C221.083 41.4333 221.377 42.152 221.377 43.01C221.377 43.648 221.201 44.231 220.849 44.759C220.497 45.287 220.038 45.782 219.474 46.244C218.909 46.706 218.304 47.1607 217.659 47.608L221.839 51.898C222 51.7 222.132 51.4177 222.235 51.051C222.345 50.6843 222.429 50.2883 222.488 49.863C222.554 49.4303 222.601 49.0233 222.631 48.642C222.667 48.2533 222.689 47.9453 222.697 47.718H224.479C224.464 48.1507 224.42 48.6823 224.347 49.313C224.273 49.9363 224.134 50.5927 223.929 51.282C223.731 51.9713 223.437 52.624 223.049 53.24L224.963 55.44H222.939L221.971 54.428C221.281 55 220.603 55.396 219.936 55.616C219.268 55.836 218.495 55.946 217.615 55.946ZM217.659 54.45C218.451 54.45 219.111 54.329 219.639 54.087C220.174 53.845 220.621 53.526 220.981 53.13L216.405 48.554C215.891 48.9133 215.466 49.368 215.129 49.918C214.791 50.468 214.623 51.0693 214.623 51.722C214.623 52.2207 214.729 52.679 214.942 53.097C215.154 53.5077 215.484 53.8377 215.932 54.087C216.379 54.329 216.955 54.45 217.659 54.45ZM216.823 46.508C217.424 46.09 217.93 45.7123 218.341 45.375C218.751 45.0303 219.063 44.6857 219.276 44.341C219.488 43.989 219.595 43.5893 219.595 43.142C219.595 42.614 219.426 42.207 219.089 41.921C218.751 41.635 218.297 41.492 217.725 41.492C217.175 41.492 216.683 41.6753 216.251 42.042C215.825 42.4013 215.613 42.9513 215.613 43.692C215.613 44.022 215.69 44.4217 215.844 44.891C216.005 45.3603 216.331 45.8993 216.823 46.508Z" fill="#2F3A36"/>
<path d="M238.724 55.748C237.302 55.748 236.018 55.4217 234.874 54.769C233.738 54.109 232.836 53.1777 232.168 51.975C231.508 50.7723 231.178 49.3533 231.178 47.718C231.178 46.0973 231.519 44.6893 232.201 43.494C232.891 42.2987 233.833 41.3747 235.028 40.722C236.231 40.062 237.602 39.732 239.142 39.732C239.971 39.732 240.759 39.82 241.507 39.996C242.263 40.1647 242.919 40.37 243.476 40.612L243.278 42.438C242.677 42.2033 242.039 42.009 241.364 41.855C240.69 41.701 239.971 41.624 239.208 41.624C237.896 41.624 236.814 41.899 235.963 42.449C235.12 42.9917 234.493 43.725 234.082 44.649C233.672 45.573 233.466 46.6033 233.466 47.74C233.466 48.9133 233.675 49.962 234.093 50.886C234.511 51.8027 235.153 52.5287 236.018 53.064C236.884 53.592 237.984 53.856 239.318 53.856C239.648 53.856 240.059 53.8267 240.55 53.768C241.042 53.7093 241.489 53.5993 241.892 53.438V49.61H239.472V47.718H243.982V54.582C243.381 54.912 242.633 55.1907 241.738 55.418C240.844 55.638 239.839 55.748 238.724 55.748Z" fill="#2F3A36"/>
<path d="M246.946 60.764L249.432 54.956L244.944 44.66H247.144L250.51 52.668L253.546 44.66H255.746L249.146 60.764H246.946ZM257.239 55.44V44.66H258.779L259.175 46.728L258.405 46.398C259.131 45.5913 259.839 45.0633 260.528 44.814C261.225 44.5647 261.903 44.44 262.563 44.44C264.14 44.44 265.266 44.8947 265.94 45.804C266.622 46.7133 266.963 47.9453 266.963 49.5V55.44H264.983V49.5C264.983 48.356 264.771 47.52 264.345 46.992C263.92 46.464 263.194 46.2 262.167 46.2C261.441 46.2 260.774 46.3613 260.165 46.684C259.564 46.9993 259.168 47.5053 258.977 48.202L259.219 46.992V55.44H257.239ZM272.037 55.66C271.369 55.66 270.786 55.5243 270.288 55.253C269.789 54.9817 269.4 54.6113 269.122 54.142C268.85 53.6727 268.715 53.1373 268.715 52.536C268.715 51.9273 268.847 51.4067 269.111 50.974C269.382 50.534 269.741 50.171 270.189 49.885C270.643 49.5917 271.149 49.3607 271.707 49.192C272.264 49.016 272.84 48.8913 273.434 48.818C274.035 48.7373 274.611 48.6933 275.161 48.686C275.161 47.6593 274.959 46.9883 274.556 46.673C274.152 46.3577 273.569 46.2 272.807 46.2C272.403 46.2 271.971 46.2623 271.509 46.387C271.054 46.5117 270.541 46.772 269.969 47.168L269.683 45.562C270.115 45.232 270.654 44.9643 271.3 44.759C271.945 44.5463 272.623 44.44 273.335 44.44C274.244 44.44 274.977 44.6013 275.535 44.924C276.092 45.2393 276.499 45.7747 276.756 46.53C277.012 47.2853 277.141 48.312 277.141 49.61V51.81C277.141 52.3233 277.163 52.7487 277.207 53.086C277.258 53.416 277.368 53.6653 277.537 53.834C277.713 53.9953 277.991 54.076 278.373 54.076H278.571L278.263 55.66H278.109C277.471 55.66 276.976 55.5977 276.624 55.473C276.279 55.3483 276.015 55.1687 275.832 54.934C275.648 54.6993 275.483 54.4133 275.337 54.076C274.933 54.5453 274.457 54.9267 273.907 55.22C273.357 55.5133 272.733 55.66 272.037 55.66ZM272.411 54.076C272.939 54.076 273.448 53.944 273.94 53.68C274.438 53.416 274.845 53.064 275.161 52.624V50.05C274.112 50.0867 273.261 50.1893 272.609 50.358C271.963 50.5267 271.49 50.7797 271.19 51.117C270.889 51.4543 270.739 51.8907 270.739 52.426C270.739 53.0053 270.893 53.427 271.201 53.691C271.516 53.9477 271.919 54.076 272.411 54.076ZM285.269 55.66C284 55.66 282.933 55.3997 282.068 54.879C281.203 54.3583 280.546 53.669 280.099 52.811C279.659 51.9457 279.439 50.996 279.439 49.962C279.439 48.9573 279.644 48.037 280.055 47.201C280.473 46.365 281.074 45.6977 281.859 45.199C282.651 44.693 283.604 44.44 284.719 44.44C285.614 44.44 286.409 44.6197 287.106 44.979C287.81 45.331 288.36 45.848 288.756 46.53C289.159 47.2047 289.361 48.026 289.361 48.994C289.361 49.148 289.354 49.3167 289.339 49.5C289.332 49.676 289.31 49.8593 289.273 50.05H281.463C281.558 51.0473 281.797 51.8247 282.178 52.382C282.559 52.9393 283.04 53.3317 283.619 53.559C284.198 53.7863 284.829 53.9 285.511 53.9C286.01 53.9 286.53 53.8487 287.073 53.746C287.616 53.6433 288.129 53.482 288.613 53.262L288.877 54.824C288.459 55.0073 287.949 55.1943 287.348 55.385C286.747 55.5683 286.054 55.66 285.269 55.66ZM281.639 48.686H287.315C287.315 48.18 287.22 47.74 287.029 47.366C286.838 46.992 286.549 46.706 286.16 46.508C285.771 46.3027 285.276 46.2 284.675 46.2C283.795 46.2 283.117 46.42 282.64 46.86C282.171 47.2927 281.837 47.9013 281.639 48.686Z" fill="#2F3A36"/>
<path d="M296.312 55.66C295.095 55.66 294.072 55.4143 293.243 54.923C292.422 54.4243 291.798 53.757 291.373 52.921C290.955 52.0777 290.746 51.1427 290.746 50.116C290.746 49.0453 290.948 48.081 291.351 47.223C291.762 46.365 292.389 45.6867 293.232 45.188C294.075 44.6893 295.153 44.44 296.466 44.44C297.031 44.44 297.562 44.4987 298.061 44.616C298.567 44.726 299.018 44.88 299.414 45.078L299.106 46.816C298.703 46.6253 298.274 46.475 297.819 46.365C297.372 46.255 296.906 46.2 296.422 46.2C295.234 46.2 294.328 46.5373 293.705 47.212C293.082 47.8867 292.77 48.8253 292.77 50.028C292.77 51.2013 293.067 52.1437 293.661 52.855C294.255 53.5663 295.161 53.922 296.378 53.922C296.877 53.922 297.353 53.8633 297.808 53.746C298.27 53.6287 298.71 53.4673 299.128 53.262L299.392 54.846C299.099 55.0513 298.67 55.2383 298.105 55.407C297.54 55.5757 296.943 55.66 296.312 55.66Z" fill="#2F3A36"/>
<path d="M305.91 55.66C304.781 55.66 303.817 55.4107 303.017 54.912C302.225 54.406 301.617 53.7313 301.191 52.888C300.773 52.0373 300.564 51.0913 300.564 50.05C300.564 49.0087 300.773 48.0663 301.191 47.223C301.617 46.3723 302.225 45.6977 303.017 45.199C303.817 44.693 304.781 44.44 305.91 44.44C307.032 44.44 307.993 44.693 308.792 45.199C309.592 45.6977 310.2 46.3723 310.618 47.223C311.044 48.0663 311.256 49.0087 311.256 50.05C311.256 51.0913 311.044 52.0373 310.618 52.888C310.2 53.7313 309.592 54.406 308.792 54.912C307.993 55.4107 307.032 55.66 305.91 55.66ZM305.91 53.9C306.981 53.9 307.802 53.5627 308.374 52.888C308.946 52.206 309.232 51.26 309.232 50.05C309.232 48.84 308.946 47.8977 308.374 47.223C307.802 46.541 306.981 46.2 305.91 46.2C304.847 46.2 304.026 46.541 303.446 47.223C302.874 47.8977 302.588 48.84 302.588 50.05C302.588 51.26 302.874 52.206 303.446 52.888C304.026 53.5627 304.847 53.9 305.91 53.9Z" fill="#2F3A36"/>
<path d="M316.074 55.66C315.377 55.66 314.824 55.5353 314.413 55.286C314.01 55.0293 313.72 54.703 313.544 54.307C313.368 53.911 313.28 53.4967 313.28 53.064V38.94H315.26V51.92C315.26 52.536 315.3 52.998 315.381 53.306C315.462 53.614 315.623 53.8193 315.865 53.922C316.114 54.0247 316.492 54.076 316.998 54.076L316.712 55.66H316.074Z" fill="#2F3A36"/>
<path d="M323.09 55.66C321.961 55.66 320.996 55.4107 320.197 54.912C319.405 54.406 318.796 53.7313 318.371 52.888C317.953 52.0373 317.744 51.0913 317.744 50.05C317.744 49.0087 317.953 48.0663 318.371 47.223C318.796 46.3723 319.405 45.6977 320.197 45.199C320.996 44.693 321.961 44.44 323.09 44.44C324.212 44.44 325.173 44.693 325.972 45.199C326.771 45.6977 327.38 46.3723 327.798 47.223C328.223 48.0663 328.436 49.0087 328.436 50.05C328.436 51.0913 328.223 52.0373 327.798 52.888C327.38 53.7313 326.771 54.406 325.972 54.912C325.173 55.4107 324.212 55.66 323.09 55.66ZM323.09 53.9C324.161 53.9 324.982 53.5627 325.554 52.888C326.126 52.206 326.412 51.26 326.412 50.05C326.412 48.84 326.126 47.8977 325.554 47.223C324.982 46.541 324.161 46.2 323.09 46.2C322.027 46.2 321.205 46.541 320.626 47.223C320.054 47.8977 319.768 48.84 319.768 50.05C319.768 51.26 320.054 52.206 320.626 52.888C321.205 53.5627 322.027 53.9 323.09 53.9Z" fill="#2F3A36"/>
<path d="M334.838 60.94C333.855 60.94 332.975 60.819 332.198 60.577C331.428 60.335 330.819 59.9757 330.372 59.499C329.932 59.0223 329.712 58.432 329.712 57.728C329.712 57.1413 329.877 56.6353 330.207 56.21C330.544 55.792 331.003 55.4547 331.582 55.198C331.237 55.0293 330.973 54.8313 330.79 54.604C330.614 54.3693 330.526 54.1127 330.526 53.834C330.526 53.504 330.625 53.207 330.823 52.943C331.028 52.6717 331.355 52.448 331.802 52.272C331.201 51.898 330.739 51.3957 330.416 50.765C330.093 50.127 329.932 49.4193 329.932 48.642C329.932 47.8573 330.108 47.1497 330.46 46.519C330.812 45.881 331.318 45.375 331.978 45.001C332.645 44.627 333.445 44.44 334.376 44.44C334.875 44.44 335.344 44.5133 335.784 44.66C336.231 44.8067 336.642 45.012 337.016 45.276C337.346 45.0853 337.735 44.9277 338.182 44.803C338.637 44.6783 339.143 44.616 339.7 44.616C339.737 44.616 339.766 44.616 339.788 44.616C339.817 44.616 339.847 44.616 339.876 44.616L339.634 45.936C339.546 45.936 339.462 45.936 339.381 45.936C339.3 45.936 339.216 45.936 339.128 45.936C339.055 45.936 338.886 45.947 338.622 45.969C338.358 45.991 338.116 46.0313 337.896 46.09C338.197 46.442 338.428 46.838 338.589 47.278C338.758 47.7107 338.842 48.1653 338.842 48.642C338.842 49.4633 338.662 50.2003 338.303 50.853C337.951 51.4983 337.441 52.0117 336.774 52.393C336.107 52.767 335.307 52.954 334.376 52.954C334.112 52.954 333.859 52.9393 333.617 52.91C333.375 52.8733 333.144 52.822 332.924 52.756C332.587 52.866 332.418 53.0567 332.418 53.328C332.418 53.4893 332.513 53.6323 332.704 53.757C332.895 53.8743 333.203 53.966 333.628 54.032L336.51 54.494C337.676 54.6773 338.574 55.0147 339.205 55.506C339.843 55.9973 340.162 56.694 340.162 57.596C340.162 58.344 339.942 58.9637 339.502 59.455C339.069 59.9537 338.453 60.324 337.654 60.566C336.855 60.8153 335.916 60.94 334.838 60.94ZM335.014 59.18C336.026 59.18 336.803 59.048 337.346 58.784C337.889 58.5273 338.16 58.146 338.16 57.64C338.16 57.244 337.988 56.9323 337.643 56.705C337.306 56.4777 336.818 56.3053 336.18 56.188L333.111 55.671C332.708 55.847 332.356 56.0817 332.055 56.375C331.754 56.6757 331.604 57.024 331.604 57.42C331.604 58.036 331.912 58.4833 332.528 58.762C333.151 59.0407 333.98 59.18 335.014 59.18ZM334.376 51.37C335.212 51.37 335.85 51.1207 336.29 50.622C336.73 50.116 336.95 49.4633 336.95 48.664C336.95 47.894 336.73 47.2633 336.29 46.772C335.85 46.2733 335.212 46.024 334.376 46.024C333.54 46.024 332.906 46.2733 332.473 46.772C332.04 47.2633 331.824 47.894 331.824 48.664C331.824 49.4633 332.04 50.116 332.473 50.622C332.906 51.1207 333.54 51.37 334.376 51.37Z" fill="#2F3A36"/>
<path d="M341.852 55.44V44.66H343.832V55.44H341.852ZM341.852 42.24V40.04H343.832V42.24H341.852ZM349.572 55.66C348.619 55.66 347.827 55.5463 347.196 55.319C346.573 55.0917 346.133 54.89 345.876 54.714L346.118 52.8C346.353 53.0053 346.767 53.24 347.361 53.504C347.955 53.768 348.663 53.9 349.484 53.9C350.181 53.9 350.713 53.7827 351.079 53.548C351.453 53.3133 351.64 52.9833 351.64 52.558C351.64 52.184 351.519 51.8833 351.277 51.656C351.043 51.4213 350.757 51.238 350.419 51.106C350.089 50.9667 349.778 50.8567 349.484 50.776C348.993 50.644 348.483 50.479 347.955 50.281C347.435 50.0757 346.995 49.7713 346.635 49.368C346.276 48.9647 346.096 48.4 346.096 47.674C346.096 47.124 346.228 46.6033 346.492 46.112C346.756 45.6133 347.185 45.21 347.779 44.902C348.373 44.594 349.162 44.44 350.144 44.44C350.863 44.44 351.446 44.517 351.893 44.671C352.348 44.8177 352.74 44.9753 353.07 45.144L352.828 46.948C352.513 46.684 352.146 46.4603 351.728 46.277C351.31 46.0937 350.797 46.002 350.188 46.002C349.572 46.002 349.07 46.1193 348.681 46.354C348.293 46.5813 348.098 46.948 348.098 47.454C348.098 47.96 348.304 48.3193 348.714 48.532C349.132 48.7447 349.763 48.9793 350.606 49.236C350.87 49.3093 351.175 49.4157 351.519 49.555C351.871 49.6943 352.212 49.8813 352.542 50.116C352.872 50.3507 353.144 50.6587 353.356 51.04C353.576 51.414 353.686 51.8833 353.686 52.448C353.686 52.9247 353.573 53.4123 353.345 53.911C353.118 54.4023 352.707 54.8167 352.113 55.154C351.519 55.4913 350.672 55.66 349.572 55.66ZM359.342 55.66C358.66 55.66 358.113 55.5353 357.703 55.286C357.292 55.0367 356.991 54.7177 356.801 54.329C356.617 53.933 356.526 53.5187 356.526 53.086V46.2H354.678L354.854 44.66H356.526V41.998L358.506 41.8V44.66H361.344V46.2H358.506V51.876C358.506 52.5653 358.546 53.064 358.627 53.372C358.707 53.68 358.905 53.8743 359.221 53.955C359.543 54.0357 360.06 54.076 360.772 54.076H361.278L361.124 55.66H359.342Z" fill="#2F3A36"/>
</g>
<defs>
<linearGradient id="paint0_linear_1119_673" x1="22.1801" y1="48.72" x2="43.5901" y2="48.72" gradientUnits="userSpaceOnUse">
<stop stop-color="#BBD7C5"/>
<stop offset="0.5" stop-color="#8CBF9E"/>
<stop offset="1" stop-color="#82B898"/>
</linearGradient>
<linearGradient id="paint1_linear_1119_673" x1="19.2901" y1="24.3" x2="31.8601" y2="24.3" gradientUnits="userSpaceOnUse">
<stop stop-color="#BBD7C5"/>
<stop offset="0.5" stop-color="#8CBF9E"/>
<stop offset="1" stop-color="#82B898"/>
</linearGradient>
<linearGradient id="paint2_linear_1119_673" x1="33.8101" y1="24.3" x2="46.4201" y2="24.3" gradientUnits="userSpaceOnUse">
<stop stop-color="#BBD7C5"/>
<stop offset="0.5" stop-color="#8CBF9E"/>
<stop offset="1" stop-color="#82B898"/>
</linearGradient>
<linearGradient id="paint3_linear_1119_673" x1="37.5103" y1="28.89" x2="57.7303" y2="28.89" gradientUnits="userSpaceOnUse">
<stop stop-color="#BBD7C5"/>
<stop offset="0.5" stop-color="#8CBF9E"/>
<stop offset="1" stop-color="#82B898"/>
</linearGradient>
<linearGradient id="paint4_linear_1119_673" x1="7.98012" y1="28.87" x2="28.1101" y2="28.87" gradientUnits="userSpaceOnUse">
<stop stop-color="#BBD7C5"/>
<stop offset="0.5" stop-color="#8CBF9E"/>
<stop offset="1" stop-color="#82B898"/>
</linearGradient>
<linearGradient id="paint5_linear_1119_673" x1="9.40168e-05" y1="26.1" x2="11.6901" y2="26.1" gradientUnits="userSpaceOnUse">
<stop stop-color="#BBD7C5"/>
<stop offset="0.5" stop-color="#8CBF9E"/>
<stop offset="1" stop-color="#82B898"/>
</linearGradient>
<linearGradient id="paint6_linear_1119_673" x1="54.1003" y1="26.1" x2="65.7503" y2="26.1" gradientUnits="userSpaceOnUse">
<stop stop-color="#BBD7C5"/>
<stop offset="0.5" stop-color="#8CBF9E"/>
<stop offset="1" stop-color="#82B898"/>
</linearGradient>
<linearGradient id="paint7_linear_1119_673" x1="40.52" y1="43.03" x2="65.29" y2="43.03" gradientUnits="userSpaceOnUse">
<stop stop-color="#BBD7C5"/>
<stop offset="0.5" stop-color="#8CBF9E"/>
<stop offset="1" stop-color="#82B898"/>
</linearGradient>
<linearGradient id="paint8_linear_1119_673" x1="0.410298" y1="42.99" x2="24.9303" y2="42.99" gradientUnits="userSpaceOnUse">
<stop stop-color="#BBD7C5"/>
<stop offset="0.5" stop-color="#8CBF9E"/>
<stop offset="1" stop-color="#82B898"/>
</linearGradient>
<linearGradient id="paint9_linear_1119_673" x1="37.8799" y1="52.36" x2="59.2599" y2="52.36" gradientUnits="userSpaceOnUse">
<stop stop-color="#BBD7C5"/>
<stop offset="0.5" stop-color="#8CBF9E"/>
<stop offset="1" stop-color="#82B898"/>
</linearGradient>
<linearGradient id="paint10_linear_1119_673" x1="6.52011" y1="52.33" x2="27.7701" y2="52.33" gradientUnits="userSpaceOnUse">
<stop stop-color="#BBD7C5"/>
<stop offset="0.5" stop-color="#8CBF9E"/>
<stop offset="1" stop-color="#82B898"/>
</linearGradient>
<linearGradient id="paint11_linear_1119_673" x1="16.5603" y1="59.1" x2="29.3303" y2="59.1" gradientUnits="userSpaceOnUse">
<stop stop-color="#BBD7C5"/>
<stop offset="0.5" stop-color="#8CBF9E"/>
<stop offset="1" stop-color="#82B898"/>
</linearGradient>
<linearGradient id="paint12_linear_1119_673" x1="36.2603" y1="59.1" x2="49.2203" y2="59.1" gradientUnits="userSpaceOnUse">
<stop stop-color="#BBD7C5"/>
<stop offset="0.5" stop-color="#8CBF9E"/>
<stop offset="1" stop-color="#82B898"/>
</linearGradient>
<clipPath id="clip0_1119_673">
<rect width="361.7" height="65.75" fill="white"/>
</clipPath>
</defs>
</svg>
