<svg width="66" height="66" viewBox="0 0 66 66" fill="none" xmlns="http://www.w3.org/2000/svg">
<path d="M32.865 57.4862C32.525 59.0062 32.035 60.3562 31.175 61.6262C29.645 63.8762 27.125 65.9662 24.325 65.7062C23.175 65.5962 22.055 64.8262 22.195 63.6262C22.445 61.5462 26.045 62.1262 29.315 59.1162C31.445 57.1562 32.405 53.9062 30.815 51.2562C29.565 49.1662 27.715 47.7862 26.155 45.2662C24.875 43.1962 24.365 40.7062 24.935 38.3062C25.375 36.4062 26.355 34.7162 27.825 33.5062C30.895 30.9962 35.215 31.1362 38.205 33.7662C40.615 35.8862 41.595 39.4362 40.685 42.5862C40.265 44.0262 39.635 45.2962 38.705 46.4162L35.485 50.3062C33.025 53.2662 33.885 57.2762 36.825 59.5762C39.205 61.4362 40.945 61.4362 42.825 62.5262C43.565 62.9562 43.825 63.8262 43.365 64.5962C42.905 65.3662 41.995 65.7562 41.085 65.7462C38.165 65.7362 35.465 63.4762 34.055 60.9362C33.435 59.8862 33.195 58.7962 32.865 57.4862Z" fill="url(#paint0_linear_1229_694)"/>
<path d="M22.805 46.1762C20.045 43.5262 18.795 40.3662 19.475 36.4862C19.845 34.3462 20.745 32.4262 21.955 30.6562C23.765 28.0162 25.495 25.6162 26.065 22.3262C26.395 20.4162 26.275 18.4962 25.635 16.6862C24.195 12.5762 21.225 10.5562 20.625 6.87625C20.325 5.03625 20.925 3.27625 22.275 2.03625C23.975 0.466245 26.315 -0.293755 28.595 0.116245C29.565 0.296245 30.455 0.836245 30.965 1.68625C31.555 2.65625 31.865 3.76625 31.865 4.95625L31.835 19.4362C31.835 21.8562 31.155 24.1662 29.975 26.2062C27.585 30.3362 24.215 31.7862 22.805 36.5962C21.495 41.0762 23.125 45.4662 26.405 48.5962C24.995 48.0162 23.935 47.1262 22.805 46.1862V46.1762Z" fill="url(#paint1_linear_1229_694)"/>
<path d="M46.175 40.6562C45.425 44.1562 42.335 47.0562 39.235 48.5962C40.565 47.2262 41.675 45.8562 42.425 44.1262C43.755 41.0862 43.735 37.6362 42.215 34.6762C41.105 32.5362 39.685 31.1262 38.075 29.3962C35.125 26.2162 33.815 22.9762 33.815 18.5262V5.03622C33.815 4.03622 33.995 3.11622 34.385 2.22622C34.905 1.02622 36.005 0.21622 37.305 0.0562201C39.415 -0.20378 41.585 0.44622 43.225 1.83622C45.575 3.82622 45.585 6.95622 44.165 9.53622C42.545 12.4662 40.635 14.2062 39.765 17.7962C39.055 20.7262 39.575 23.7062 40.965 26.3262C41.555 27.4362 42.175 28.4262 42.905 29.4462C43.715 30.5762 44.485 31.6762 45.105 32.9462C46.275 35.3562 46.745 38.0162 46.175 40.6662V40.6562Z" fill="url(#paint2_linear_1229_694)"/>
<path d="M48.275 45.9963C45.895 47.9663 42.785 49.5163 39.945 50.6263C39.125 50.9463 38.405 51.3363 37.515 51.5463L43.185 47.8563C44.525 46.9763 45.625 45.8163 46.655 44.5863C47.745 43.2763 48.535 41.8163 48.935 40.1463C49.825 36.4563 48.795 33.0363 47.195 29.7363C45.685 26.6263 44.565 24.1563 44.155 20.6363C43.855 18.0463 44.215 15.4963 45.025 13.0263C45.545 11.4263 46.315 9.97628 47.275 8.63628C48.375 7.10628 49.985 5.95628 51.925 6.29628C54.065 6.67628 55.955 8.01628 57.075 9.92628C57.975 11.4663 58.055 13.6263 56.675 14.9163C55.695 15.8363 54.195 16.4863 52.665 17.8163C51.235 19.0563 50.475 20.7963 50.455 22.7563C50.445 24.2863 50.815 25.7463 51.255 27.1963L52.235 30.4563C52.885 32.6263 53.145 34.8363 53.005 37.1063C52.775 40.7463 50.985 43.7663 48.285 46.0063L48.275 45.9963Z" fill="url(#paint3_linear_1229_694)"/>
<path d="M22.085 48.9662C17.475 46.5262 13.735 43.7862 12.885 38.1162C12.425 35.0662 12.965 31.9662 13.905 29.0462C14.745 26.4362 15.835 23.3962 14.975 20.7262C14.115 18.0562 11.985 16.8962 9.81501 15.5262C8.79501 14.8862 8.12501 13.9462 8.00501 12.6862C7.88501 11.5162 8.28501 10.3962 8.98501 9.42622C10.115 7.85622 11.725 6.73622 13.585 6.32622C15.005 6.01622 16.355 6.47622 17.385 7.45622C18.005 8.05622 18.475 8.72622 18.945 9.45622C21.675 13.7162 22.385 19.2062 20.865 24.0862C19.875 27.2662 18.845 28.8062 17.725 31.6562C16.115 35.7562 15.915 40.1562 18.525 43.8762C19.895 45.8262 21.645 47.3962 23.635 48.6562L28.145 51.5162C25.995 50.8162 24.105 49.8662 22.105 48.9662H22.085Z" fill="url(#paint4_linear_1229_694)"/>
<path d="M8.97498 35.4562C8.42498 35.0762 8.06498 34.5462 7.70498 33.9862C6.93498 32.7862 6.16498 31.6362 5.18498 30.6362C4.40498 29.8362 3.49498 29.3662 2.42498 29.1162C1.47498 28.8962 0.744977 28.2662 0.444977 27.2962C-0.285023 24.9562 -0.0950232 22.4262 0.854977 20.1762C1.23498 19.2862 1.72498 18.5662 2.38498 17.8862C4.53498 15.6562 7.64498 16.3762 9.45498 18.6762C11.265 20.9762 11.705 24.1662 11.685 27.0962C11.675 29.4262 11.455 31.6762 11.025 33.9562C10.935 34.4362 10.755 34.8862 10.485 35.2362C10.115 35.7262 9.49498 35.8162 8.97498 35.4562Z" fill="url(#paint5_linear_1229_694)"/>
<path d="M60.635 30.6062C58.895 32.3062 58.245 34.0962 57.115 35.2462C56.705 35.6562 56.015 35.8462 55.525 35.4462C55.145 35.1362 54.925 34.5862 54.815 34.0762C54.285 31.5862 54.065 29.0762 54.105 26.5162C54.145 23.5962 54.695 20.3662 56.695 18.1962C57.735 17.0662 59.145 16.3962 60.675 16.5562C62.095 16.6962 63.265 17.5262 64.085 18.7062C65.515 20.7862 65.995 23.5062 65.645 26.0162C65.525 26.8562 65.285 27.6462 64.755 28.3062C63.875 29.3962 62.555 28.7462 60.645 30.6162L60.635 30.6062Z" fill="url(#paint6_linear_1229_694)"/>
<path d="M46.365 50.8562C44.395 51.5562 42.565 52.1962 40.525 52.6162L43.345 51.3662L46.265 49.8662C48.835 48.5462 51.175 46.8762 53.315 44.9162C55.315 43.0862 56.825 40.8962 57.865 38.3662C58.595 36.5962 59.555 34.6362 61.255 33.7662C62.815 32.9762 64.495 33.7262 65.045 35.4162C65.415 36.5562 65.345 37.7662 64.975 38.9462C64.485 40.5262 63.495 41.7962 62.255 42.8362C59.985 44.7362 57.195 46.0762 54.525 47.3562C51.855 48.6362 49.205 49.8362 46.355 50.8462L46.365 50.8562Z" fill="url(#paint7_linear_1229_694)"/>
<path d="M24.935 52.5262C23.595 52.2862 22.425 51.8562 21.145 51.4362C17.335 50.2062 13.725 48.5962 10.105 46.8462C8.005 45.8362 6.015 44.7662 4.125 43.3862C2.235 42.0062 1.035 40.4662 0.544998 38.2062C0.304998 37.0762 0.384998 35.9262 0.884998 34.8962C1.515 33.6062 2.975 33.1362 4.275 33.6862C5.065 34.0262 5.745 34.6262 6.265 35.3662C8.005 37.8162 7.985 39.5862 9.995 42.2562C12.975 46.1962 17.635 49.0862 21.985 51.1462L24.915 52.5162L24.935 52.5262Z" fill="url(#paint8_linear_1229_694)"/>
<path d="M50.805 54.7562C47.605 55.5762 41.455 56.8462 38.485 55.3262C38.215 55.1862 37.9849 54.9662 37.8849 54.6862C41.3449 54.4462 45.175 53.3562 48.325 52.0262L51.1649 50.8262C52.6549 50.1962 58.1249 47.5562 59.1149 49.2262C59.5849 50.0162 58.775 51.0562 58.1549 51.6062C56.2949 53.2562 53.1749 54.1362 50.7949 54.7462L50.805 54.7562Z" fill="url(#paint9_linear_1229_694)"/>
<path d="M27.775 54.6663C27.085 55.9763 23.745 56.0663 22.535 55.9863C18.775 55.7263 15.125 54.9563 11.555 53.7463C10.295 53.3163 9.125 52.7663 8.055 51.9963C7.255 51.4163 6.165 50.2863 6.625 49.2663C6.975 48.4963 8.345 48.6263 9.035 48.7963C10.285 49.1063 11.465 49.5063 12.655 50.0063L17.205 51.9163C20.525 53.3063 24.155 54.3863 27.775 54.6663Z" fill="url(#paint10_linear_1229_694)"/>
<path d="M16.885 60.3863C16.515 59.9063 16.435 59.2563 16.805 58.8263C17.545 57.9763 19.365 58.0563 20.445 58.1263C22.115 58.2363 23.745 58.2563 25.395 57.9863C26.355 57.8363 27.285 57.6463 28.155 57.2363L29.335 56.6863C27.945 59.1963 24.545 59.9163 22.055 60.8363C21.325 61.1063 20.635 61.3763 19.865 61.4863C18.765 61.6463 17.585 61.3063 16.875 60.3863H16.885Z" fill="url(#paint11_linear_1229_694)"/>
<path d="M49.045 60.0863C48.505 61.0363 47.535 61.5663 46.475 61.5263C45.795 61.5063 45.145 61.3363 44.505 61.1163L40.775 59.8663C39.205 59.3463 37.095 58.3363 36.265 56.6863C38.835 58.0963 41.565 58.3663 44.455 58.2063C45.745 58.1363 47.605 57.9563 48.675 58.5563C49.225 58.8663 49.375 59.5163 49.045 60.0863Z" fill="url(#paint12_linear_1229_694)"/>
<defs>
<linearGradient id="paint0_linear_1229_694" x1="22.185" y1="48.7162" x2="43.585" y2="48.7162" gradientUnits="userSpaceOnUse">
<stop stop-color="#BBD7C5"/>
<stop offset="0.5" stop-color="#8CBF9E"/>
<stop offset="1" stop-color="#82B898"/>
</linearGradient>
<linearGradient id="paint1_linear_1229_694" x1="19.285" y1="24.2962" x2="31.855" y2="24.2962" gradientUnits="userSpaceOnUse">
<stop stop-color="#BBD7C5"/>
<stop offset="0.5" stop-color="#8CBF9E"/>
<stop offset="1" stop-color="#82B898"/>
</linearGradient>
<linearGradient id="paint2_linear_1229_694" x1="33.815" y1="24.2962" x2="46.415" y2="24.2962" gradientUnits="userSpaceOnUse">
<stop stop-color="#BBD7C5"/>
<stop offset="0.5" stop-color="#8CBF9E"/>
<stop offset="1" stop-color="#82B898"/>
</linearGradient>
<linearGradient id="paint3_linear_1229_694" x1="37.505" y1="28.8863" x2="57.735" y2="28.8863" gradientUnits="userSpaceOnUse">
<stop stop-color="#BBD7C5"/>
<stop offset="0.5" stop-color="#8CBF9E"/>
<stop offset="1" stop-color="#82B898"/>
</linearGradient>
<linearGradient id="paint4_linear_1229_694" x1="7.98501" y1="28.8762" x2="28.115" y2="28.8762" gradientUnits="userSpaceOnUse">
<stop stop-color="#BBD7C5"/>
<stop offset="0.5" stop-color="#8CBF9E"/>
<stop offset="1" stop-color="#82B898"/>
</linearGradient>
<linearGradient id="paint5_linear_1229_694" x1="-0.00502317" y1="26.1062" x2="11.675" y2="26.1062" gradientUnits="userSpaceOnUse">
<stop stop-color="#BBD7C5"/>
<stop offset="0.5" stop-color="#8CBF9E"/>
<stop offset="1" stop-color="#82B898"/>
</linearGradient>
<linearGradient id="paint6_linear_1229_694" x1="54.095" y1="26.0962" x2="65.745" y2="26.0962" gradientUnits="userSpaceOnUse">
<stop stop-color="#BBD7C5"/>
<stop offset="0.5" stop-color="#8CBF9E"/>
<stop offset="1" stop-color="#82B898"/>
</linearGradient>
<linearGradient id="paint7_linear_1229_694" x1="40.525" y1="43.0362" x2="65.295" y2="43.0362" gradientUnits="userSpaceOnUse">
<stop stop-color="#BBD7C5"/>
<stop offset="0.5" stop-color="#8CBF9E"/>
<stop offset="1" stop-color="#82B898"/>
</linearGradient>
<linearGradient id="paint8_linear_1229_694" x1="0.414998" y1="42.9962" x2="24.935" y2="42.9962" gradientUnits="userSpaceOnUse">
<stop stop-color="#BBD7C5"/>
<stop offset="0.5" stop-color="#8CBF9E"/>
<stop offset="1" stop-color="#82B898"/>
</linearGradient>
<linearGradient id="paint9_linear_1229_694" x1="37.8849" y1="52.3562" x2="59.2649" y2="52.3562" gradientUnits="userSpaceOnUse">
<stop stop-color="#BBD7C5"/>
<stop offset="0.5" stop-color="#8CBF9E"/>
<stop offset="1" stop-color="#82B898"/>
</linearGradient>
<linearGradient id="paint10_linear_1229_694" x1="6.515" y1="52.3363" x2="27.775" y2="52.3363" gradientUnits="userSpaceOnUse">
<stop stop-color="#BBD7C5"/>
<stop offset="0.5" stop-color="#8CBF9E"/>
<stop offset="1" stop-color="#82B898"/>
</linearGradient>
<linearGradient id="paint11_linear_1229_694" x1="16.565" y1="59.1063" x2="29.335" y2="59.1063" gradientUnits="userSpaceOnUse">
<stop stop-color="#BBD7C5"/>
<stop offset="0.5" stop-color="#8CBF9E"/>
<stop offset="1" stop-color="#82B898"/>
</linearGradient>
<linearGradient id="paint12_linear_1229_694" x1="36.265" y1="59.1063" x2="49.215" y2="59.1063" gradientUnits="userSpaceOnUse">
<stop stop-color="#BBD7C5"/>
<stop offset="0.5" stop-color="#8CBF9E"/>
<stop offset="1" stop-color="#82B898"/>
</linearGradient>
</defs>
</svg>
